<?xml version="1.0" standalone="no"?>
<!DOCTYPE svg PUBLIC "-//W3C//DTD SVG 20010904//EN"
 "http://www.w3.org/TR/2001/REC-SVG-20010904/DTD/svg10.dtd">
<svg version="1.0" xmlns="http://www.w3.org/2000/svg"
 width="512.000000pt" height="512.000000pt" viewBox="0 0 512.000000 512.000000"
 preserveAspectRatio="xMidYMid meet">
<metadata>
Created by potrace 1.11, written by Peter Selinger 2001-2013
</metadata>
<g transform="translate(0.000000,512.000000) scale(0.100000,-0.100000)"
fill="#000000" stroke="none">
<path d="M2064 4288 c-4 -12 -29 -70 -56 -128 -28 -58 -76 -161 -108 -230 -32
-69 -81 -174 -110 -235 -29 -60 -94 -200 -145 -310 -124 -266 -157 -337 -226
-484 -33 -68 -59 -128 -59 -132 0 -5 -137 -9 -305 -9 l-305 0 0 -185 0 -185
213 -2 214 -3 -88 -190 c-49 -104 -112 -239 -140 -300 -29 -60 -85 -180 -124
-265 -40 -85 -94 -200 -120 -255 -26 -55 -73 -156 -105 -225 -32 -69 -80 -170
-106 -225 -27 -55 -50 -103 -52 -107 -2 -5 106 -8 241 -8 l244 0 36 78 c19 42
59 127 87 187 29 61 97 207 152 325 90 193 237 508 368 785 25 55 57 124 70
153 l24 52 353 0 353 0 0 -790 0 -790 548 0 c302 0 587 5 637 10 133 15 238
45 351 100 158 76 288 208 371 375 151 302 143 786 -17 1039 -17 26 -30 49
-30 51 0 3 104 5 230 5 l230 0 0 185 0 185 -327 0 -327 0 61 63 c181 184 248
412 213 722 -22 189 -83 352 -175 467 -124 157 -335 258 -600 288 -52 6 -381
10 -777 10 l-687 0 -7 -22z m1458 -372 c228 -49 337 -197 354 -480 18 -306
-125 -536 -373 -601 -45 -12 -126 -15 -380 -15 l-323 0 0 555 0 555 328 0
c243 0 344 -4 394 -14z m-1152 -596 l0 -560 -265 0 c-146 0 -265 1 -265 3 0 2
14 32 31 68 17 35 57 120 89 189 32 69 79 170 105 225 26 55 60 127 75 160 28
61 69 150 142 305 22 47 48 104 59 128 10 23 21 42 24 42 3 0 5 -252 5 -560z
m1351 -958 c103 -66 170 -173 205 -327 24 -107 24 -331 0 -429 -50 -207 -191
-357 -377 -401 -50 -12 -136 -15 -406 -15 l-343 0 0 600 0 600 438 0 438 0 45
-28z"/>
</g>
</svg>
