<?xml version="1.0" standalone="no"?>
<!DOCTYPE svg PUBLIC "-//W3C//DTD SVG 20010904//EN"
 "http://www.w3.org/TR/2001/REC-SVG-20010904/DTD/svg10.dtd">
<svg version="1.0" xmlns="http://www.w3.org/2000/svg"
 width="512.000000pt" height="512.000000pt" viewBox="0 0 512.000000 512.000000"
 preserveAspectRatio="xMidYMid meet">
<metadata>
Created by potrace 1.11, written by Peter Selinger 2001-2013
</metadata>
<g transform="translate(0.000000,512.000000) scale(0.100000,-0.100000)"
fill="#000000" stroke="none">
<path d="M2173 3578 c-27 -57 -139 -295 -248 -530 l-200 -428 -207 0 -208 0 0
-125 0 -125 145 0 c80 0 145 -4 145 -8 0 -4 -95 -210 -211 -457 -116 -248
-228 -487 -249 -532 l-39 -83 167 0 167 1 251 537 251 537 241 3 242 2 0 -540
0 -540 379 0 c408 0 493 7 605 47 95 34 159 77 228 151 114 124 163 271 163
487 -1 149 -16 223 -69 328 l-34 67 159 0 159 0 0 125 0 125 -223 0 -223 0 48
51 c56 60 112 166 128 246 8 36 11 106 8 183 -8 198 -59 324 -174 430 -61 55
-145 98 -244 126 -58 16 -124 18 -586 21 l-522 4 -49 -103z m1092 -183 c65
-24 136 -96 159 -160 27 -75 33 -246 12 -321 -30 -104 -101 -187 -201 -234
-23 -11 -89 -15 -272 -18 l-243 -4 0 382 0 382 248 -4 c210 -4 255 -7 297 -23z
m-845 -395 l0 -380 -181 0 c-141 0 -180 3 -176 13 17 41 350 747 353 747 2 0
4 -171 4 -380z m945 -668 c95 -72 144 -220 132 -402 -9 -136 -46 -221 -127
-294 -85 -77 -103 -81 -392 -84 l-258 -3 0 410 0 411 298 0 297 0 50 -38z"/>
</g>
</svg>
